<?xml version="1.0" ?><!DOCTYPE svg  PUBLIC '-//W3C//DTD SVG 1.1//EN'  'http://www.w3.org/Graphics/SVG/1.1/DTD/svg11.dtd'><svg enable-background="new 0 0 800 800" height="800px" id="Layer_1" version="1.1" viewBox="0 0 800 800" width="800px" xml:space="preserve" xmlns="http://www.w3.org/2000/svg" xmlns:xlink="http://www.w3.org/1999/xlink"><g><path d="M503.974,210.335l21.975-163.768c0.834-6.17-2.064-12.248-7.369-15.506   c-5.296-3.258-12.033-3.083-17.152,0.448L301.258,169.302c-153.188,12.3-268.164,111.906-268.164,233.073   c0,122.318,120.807,224.256,275.858,233.627L501.427,768.49c2.678,1.848,5.805,2.775,8.923,2.775c2.854,0,5.7-0.773,8.229-2.328   c5.305-3.258,8.203-9.336,7.369-15.506l-21.387-159.311c78.352-43.163,125.576-112.877,126.964-188.343l0.018-3.403   C631.543,325.315,584.081,254.214,503.974,210.335z M600.048,405.229c-1.221,66.719-45.951,128.796-119.647,166.061   c-5.981,3.021-9.389,9.499-8.493,16.138l18.119,135L323.162,607.563c-2.415-1.66-5.234-2.612-8.168-2.758   C174.575,597.98,64.571,509.06,64.571,402.375c0-103.834,106.824-192.558,243.186-201.995c2.811-0.193,5.524-1.138,7.844-2.736   L490.035,77.571L471.31,217.054c-0.887,6.653,2.529,13.139,8.537,16.156c75.269,37.863,120.219,101.103,120.219,169.165   L600.048,405.229z" fill="#4D4D4D"/><path d="M199.308,292.828c-32.022,0-58.071,26.045-58.071,58.063s26.049,58.067,58.071,58.067   c32.021,0,58.071-26.05,58.071-58.067S231.329,292.828,199.308,292.828z M199.308,377.48c-14.667,0-26.594-11.927-26.594-26.59   c0-14.659,11.927-26.585,26.594-26.585c14.658,0,26.594,11.927,26.594,26.585C225.901,365.553,213.966,377.48,199.308,377.48z" fill="#4D4D4D"/><path d="M686.014,226.685c-5.901-6.368-15.853-6.728-22.22-0.839c-6.377,5.902-6.764,15.857-0.861,22.238   c6.622,7.18,160.584,177.759,0.422,337.931c-6.148,6.144-6.148,16.112,0,22.255c3.074,3.074,7.096,4.611,11.119,4.611   c4.031,0,8.063-1.537,11.137-4.611C867.369,426.511,687.849,228.665,686.014,226.685z" fill="#4D4D4D"/><path d="M342.502,288.818c-6.376,5.889-6.763,15.844-0.878,22.229c4.153,4.515,100.677,111.744,0.421,211.99   c-6.147,6.144-6.147,16.112,0,22.256c3.074,3.074,7.105,4.611,11.137,4.611c4.022,0,8.045-1.537,11.119-4.611   c121.843-121.83,1.643-254.31,0.413-255.636C358.812,283.294,348.878,282.92,342.502,288.818z" fill="#4D4D4D"/></g></svg>